<mxfile host="app.diagrams.net" agent="Mozilla/5.0 (Windows NT 10.0; Win64; x64) AppleWebKit/537.36 (KHTML, like Gecko) Chrome/130.0.0.0 Safari/537.36" version="24.8.0">
  <diagram name="PÃ¡gina-1" id="7CQJc45_ehwneiwbi56v">
    <mxGraphModel dx="1613" dy="653" grid="1" gridSize="10" guides="1" tooltips="1" connect="1" arrows="1" fold="1" page="1" pageScale="1" pageWidth="850" pageHeight="1100" math="0" shadow="0">
      <root>
        <mxCell id="0" />
        <mxCell id="1" parent="0" />
        <mxCell id="uHWaTiP22oQmyXd6AaXo-1" value="Inicio" style="whiteSpace=wrap;strokeWidth=2;" vertex="1" parent="1">
          <mxGeometry x="238" y="20" width="99" height="48" as="geometry" />
        </mxCell>
        <mxCell id="uHWaTiP22oQmyXd6AaXo-2" value="Verificar si el cliente es nuevo o recurrente" style="whiteSpace=wrap;strokeWidth=2;" vertex="1" parent="1">
          <mxGeometry x="173" y="118" width="230" height="66" as="geometry" />
        </mxCell>
        <mxCell id="uHWaTiP22oQmyXd6AaXo-5" value="Buscar archivo de cliente" style="whiteSpace=wrap;strokeWidth=2;" vertex="1" parent="1">
          <mxGeometry x="20" y="257" width="241" height="48" as="geometry" />
        </mxCell>
        <mxCell id="uHWaTiP22oQmyXd6AaXo-9" value="" style="curved=1;startArrow=none;endArrow=block;exitX=0.5;exitY=1.01;entryX=0.5;entryY=0.01;rounded=0;" edge="1" parent="1" source="uHWaTiP22oQmyXd6AaXo-1" target="uHWaTiP22oQmyXd6AaXo-2">
          <mxGeometry relative="1" as="geometry">
            <Array as="points" />
          </mxGeometry>
        </mxCell>
        <mxCell id="uHWaTiP22oQmyXd6AaXo-10" value="Cliente Nuevo" style="curved=1;startArrow=none;endArrow=block;exitX=0.81;exitY=1.01;entryX=0.5;entryY=0;rounded=0;" edge="1" parent="1" source="uHWaTiP22oQmyXd6AaXo-2">
          <mxGeometry relative="1" as="geometry">
            <Array as="points">
              <mxPoint x="435" y="221" />
            </Array>
            <mxPoint x="435.5" y="257" as="targetPoint" />
          </mxGeometry>
        </mxCell>
        <mxCell id="uHWaTiP22oQmyXd6AaXo-12" value="Cliente Recurrente" style="curved=1;startArrow=none;endArrow=block;exitX=0.19;exitY=1.01;entryX=0.5;entryY=0;rounded=0;" edge="1" parent="1" source="uHWaTiP22oQmyXd6AaXo-2" target="uHWaTiP22oQmyXd6AaXo-5">
          <mxGeometry relative="1" as="geometry">
            <Array as="points">
              <mxPoint x="141" y="221" />
            </Array>
          </mxGeometry>
        </mxCell>
        <mxCell id="uHWaTiP22oQmyXd6AaXo-13" value="" style="curved=1;startArrow=none;endArrow=block;exitX=0.5;exitY=1;entryX=0.5;entryY=0;rounded=0;" edge="1" parent="1" source="uHWaTiP22oQmyXd6AaXo-5">
          <mxGeometry relative="1" as="geometry">
            <Array as="points" />
            <mxPoint x="140.50000000000023" y="355.0000000000001" as="targetPoint" />
          </mxGeometry>
        </mxCell>
      </root>
    </mxGraphModel>
  </diagram>
</mxfile>
